HIERARCHY
ROOT Hips
{
    OFFSET 0.000000 0.000000 0.000000
    CHANNELS 6 Xposition Yposition Zposition Zrotation Xrotation Yrotation
    JOINT Spine
    {
        OFFSET -0.000000 7.856138 0.000000
        CHANNELS 3 Zrotation Xrotation Yrotation
        JOINT Spine1
        {
            OFFSET -0.000000 20.830866 0.000000
            CHANNELS 3 Zrotation Xrotation Yrotation
            JOINT Neck
            {
                OFFSET -0.000000 20.745317 1.885938
                CHANNELS 3 Zrotation Xrotation Yrotation
                JOINT Head
                {
                    OFFSET -0.000000 13.412918 -1.916131
                    CHANNELS 3 Zrotation Xrotation Yrotation
                    End Site
                    {
                        OFFSET -0.000000 23.951641 0.000000
                    }
                }
            }
            JOINT LeftShoulder
            {
                OFFSET 3.826675 19.078362 -0.073511
                CHANNELS 3 Zrotation Xrotation Yrotation
                JOINT LeftArm
                {
                    OFFSET 10.442133 0.000000 0.000000
                    CHANNELS 3 Zrotation Xrotation Yrotation
                    JOINT LeftForeArm
                    {
                        OFFSET 37.051945 0.000000 0.000000
                        CHANNELS 3 Zrotation Xrotation Yrotation
                        JOINT LeftHand
                        {
                            OFFSET 24.394852 0.000000 0.000000
                            CHANNELS 3 Zrotation Xrotation Yrotation
                            End Site
                            {
                                OFFSET 14.370985 0.000000 0.000000
                            }
                        }
                    }
                }
            }
            JOINT RightShoulder
            {
                OFFSET -3.827599 19.078362 -0.073511
                CHANNELS 3 Zrotation Xrotation Yrotation
                JOINT RightArm
                {
                    OFFSET -10.442133 0.000000 0.000000
                    CHANNELS 3 Zrotation Xrotation Yrotation
                    JOINT RightForeArm
                    {
                        OFFSET -37.051945 0.000000 0.000000
                        CHANNELS 3 Zrotation Xrotation Yrotation
                        JOINT RightHand
                        {
                            OFFSET -24.394852 0.000000 0.000000
                            CHANNELS 3 Zrotation Xrotation Yrotation
                            End Site
                            {
                                OFFSET -14.370985 0.000000 0.000000
                            }
                        }
                    }
                }
            }
        }
    }
    JOINT LeftUpLeg
    {
        OFFSET 9.580656 0.000000 0.000000
        CHANNELS 3 Zrotation Xrotation Yrotation
        JOINT LeftLeg
        {
            OFFSET -0.000000 -43.769192 0.000000
            CHANNELS 3 Zrotation Xrotation Yrotation
            JOINT LeftFoot
            {
                OFFSET -0.000000 -42.531967 0.000000
                CHANNELS 3 Zrotation Xrotation Yrotation
                JOINT LeftToeBase
                {
                    OFFSET -0.000000 -6.227426 14.370985
                    CHANNELS 3 Zrotation Xrotation Yrotation
                    End Site
                    {
                        OFFSET -0.000000 0.000000 3.832262
                    }
                }
            }
        }
    }
    JOINT RightUpLeg
    {
        OFFSET -9.580656 0.000000 0.000000
        CHANNELS 3 Zrotation Xrotation Yrotation
        JOINT RightLeg
        {
            OFFSET -0.000000 -43.769192 0.000000
            CHANNELS 3 Zrotation Xrotation Yrotation
            JOINT RightFoot
            {
                OFFSET -0.000000 -42.531967 0.000000
                CHANNELS 3 Zrotation Xrotation Yrotation
                JOINT RightToeBase
                {
                    OFFSET -0.000000 -6.227426 14.370985
                    CHANNELS 3 Zrotation Xrotation Yrotation
                    End Site
                    {
                        OFFSET -0.000000 0.000000 3.832262
                    }
                }
            }
        }
    }
}
MOTION
Frames:    7
Frame Time:    0.008333
16.519997    91.856354    27.882069    1.177207    -1.537488    89.389938    0.675973    -2.234039    3.751940    3.244338    6.578769    3.552267    4.004377    -2.578902    -2.785000    2.543195    -2.605834    -3.166248    -5.850165    14.166929    4.929919    -47.334969    52.010437    -20.324041    0.092285    -17.134659    -22.234560    6.640315    -16.410593    12.670495    1.307892    12.429172    0.890224    37.305012    47.421375    28.400549    -6.843831    -24.379805    30.180868    -14.771046    -21.088242    -13.223604    12.044755    -24.252611    -2.944554    -29.081894    50.339695    17.840225    10.723317    -20.043550    21.337105    0.000000    0.000000    0.000000    1.737641    -0.903556    -1.471301    3.311255    7.640104    -0.378654    -7.396242    -10.933535    -7.944056    0.000000    0.000000    0.000000    
16.550278    91.909721    27.851837    1.142059    -1.396188    89.406197    0.650192    -2.271979    3.756491    3.180579    6.464338    3.563949    4.064734    -2.793444    -2.734703    2.292614    -1.992610    -3.185354    -5.838829    14.243608    4.992770    -47.595722    52.000973    -20.107874    0.059967    -16.997435    -21.940804    6.519032    -16.298262    12.558761    1.237272    12.461869    0.955329    37.504040    47.325695    28.254253    -6.809660    -24.502857    30.417578    -14.928085    -21.163874    -13.447070    11.779274    -24.214329    -2.947886    -28.997984    50.362057    17.827232    10.673429    -20.390944    21.346773    0.000000    0.000000    0.000000    1.594333    -0.852705    -1.484419    3.283057    7.491896    -0.459747    -7.310389    -10.795788    -7.869448    0.000000    0.000000    0.000000    
16.596445    91.957695    27.814054    1.113209    -1.259040    89.408630    0.632989    -2.372384    3.781884    3.063185    6.450399    3.596138    4.091298    -2.743006    -2.768346    2.259371    -1.871796    -3.230823    -5.758019    14.255486    5.024046    -47.853462    52.016987    -19.909132    0.007999    -16.833368    -21.696459    6.387191    -16.155224    12.596519    1.251322    12.410645    0.929379    37.442123    47.633877    28.248285    -6.903473    -24.795845    30.566559    -14.430162    -21.502892    -13.313403    11.521276    -24.094280    -2.953522    -28.889725    50.289452    17.768238    10.679001    -20.701296    21.363401    0.000000    0.000000    0.000000    1.439403    -0.758182    -1.499025    3.270939    7.283966    -0.579255    -7.237747    -10.657817    -7.719732    0.000000    0.000000    0.000000    
16.639835    92.002609    27.773718    1.071490    -1.145595    89.389946    0.626391    -2.456285    3.821072    2.960366    6.382709    3.642549    4.132497    -2.699365    -2.758854    2.245385    -1.714532    -3.231734    -5.677781    14.298306    5.017467    -48.133690    51.933201    -19.671526    -0.086061    -16.642172    -21.582096    6.262258    -15.991535    12.641023    1.262654    12.385609    0.907712    37.435856    47.879459    28.187826    -6.974127    -24.963755    30.831497    -14.804367    -21.544062    -13.766230    11.299814    -23.936958    -2.932440    -28.759439    50.127659    17.678370    10.618839    -20.963779    21.363899    0.000000    0.000000    0.000000    1.293719    -0.687174    -1.515415    3.277295    7.102027    -0.580325    -7.159059    -10.520238    -7.670603    0.000000    0.000000    0.000000    
16.690763    92.046127    27.730352    1.032514    -1.058583    89.346992    0.787581    -2.621716    3.799794    2.640373    6.483003    3.632211    4.150434    -2.672290    -2.691091    2.346987    -1.609749    -3.149418    -5.573627    14.259459    5.159185    -48.335564    51.865967    -19.429708    -0.224119    -16.475628    -21.560074    6.073343    -15.870487    12.629616    1.290357    12.326367    1.042807    37.436733    48.080685    28.199654    -7.086789    -25.031054    30.984701    -14.768900    -21.551249    -13.990221    11.129691    -23.699873    -2.917920    -28.685349    49.818050    17.783451    10.571453    -21.164263    21.283255    0.000000    0.000000    0.000000    1.166985    -0.591542    -1.461778    3.307392    6.882930    -0.634402    -7.092365    -10.354975    -7.628957    0.000000    0.000000    0.000000    
16.745434    92.076729    27.686852    0.995170    -1.004983    89.310059    0.795539    -2.700824    3.839657    2.621142    6.397953    3.674414    4.136583    -2.622240    -2.695511    2.349810    -1.446816    -3.152666    -5.589174    14.369450    5.141679    -48.534557    51.692272    -19.206886    -0.304723    -16.318516    -21.565418    5.858855    -15.752426    12.592716    1.276063    12.306369    0.955505    37.379612    48.355778    28.204586    -7.174919    -25.079306    31.144047    -14.468103    -21.608765    -13.940961    10.974236    -23.409992    -2.890493    -28.496714    49.483120    17.634951    10.541705    -21.365891    21.312477    0.000000    0.000000    0.000000    1.065377    -0.490500    -1.410187    3.348757    6.665794    -0.652019    -7.049141    -10.233203    -7.620128    0.000000    0.000000    0.000000    
16.793159    92.106720    27.649084    0.945064    -0.985403    89.229950    0.633478    -2.708533    3.959126    2.927708    6.147634    3.786921    4.102109    -2.554069    -2.771770    2.206968    -1.242645    -3.249659    -5.626396    14.407688    4.991989    -48.948406    51.596962    -18.846354    -0.327341    -16.183805    -21.516546    5.450549    -15.668435    12.515008    1.267696    12.364369    0.607980    37.077255    48.721909    28.348478    -7.254370    -25.113077    31.264517    -13.963873    -21.687538    -13.817989    10.874571    -23.094303    -2.788765    -28.200186    49.047657    17.274330    10.543757    -21.458866    21.424780    0.000000    0.000000    0.000000    1.001645    -0.413181    -1.221468    3.399620    6.444788    -0.767001    -6.974654    -10.089060    -7.457329    0.000000    0.000000    0.000000    
